<?xml version="1.0" encoding="UTF-8" standalone="no"?>
<!-- Created with Inkscape (http://www.inkscape.org/) -->

<svg
   width="1080"
   height="1080"
   viewBox="0 0 285.74999 285.75"
   version="1.1"
   id="svg1"
   xml:space="preserve"
   inkscape:version="1.4.4 (dcaf3e7d9e, 2026-05-05)"
   sodipodi:docname="logo.svg"
   xmlns:inkscape="http://www.inkscape.org/namespaces/inkscape"
   xmlns:sodipodi="http://sodipodi.sourceforge.net/DTD/sodipodi-0.dtd"
   xmlns="http://www.w3.org/2000/svg"
   xmlns:svg="http://www.w3.org/2000/svg"><sodipodi:namedview
     id="namedview1"
     pagecolor="#ffffff"
     bordercolor="#000000"
     borderopacity="0.25"
     inkscape:showpageshadow="2"
     inkscape:pageopacity="0.0"
     inkscape:pagecheckerboard="0"
     inkscape:deskcolor="#d1d1d1"
     inkscape:document-units="mm"
     showgrid="false"
     inkscape:zoom="0.39447105"
     inkscape:cx="471.51749"
     inkscape:cy="429.68932"
     inkscape:window-width="1920"
     inkscape:window-height="1012"
     inkscape:window-x="0"
     inkscape:window-y="0"
     inkscape:window-maximized="1"
     inkscape:current-layer="g1" /><defs
     id="defs1"><linearGradient
       id="gradient_0"
       gradientUnits="userSpaceOnUse"
       x1="753.76666"
       y1="662.96674"
       x2="440.41037"
       y2="548.91443"
       gradientTransform="matrix(1.5160859,0,0,1.5160859,-167.0702,-231.36271)"><stop
         offset="0"
         stop-color="#0C0000"
         id="stop1"
         style="stop-color:#d9006f;stop-opacity:1;" /><stop
         offset="1"
         stop-color="#4B27A4"
         id="stop2" /></linearGradient><linearGradient
       id="gradient_1"
       gradientUnits="userSpaceOnUse"
       x1="414.82837"
       y1="605.60077"
       x2="270.86832"
       y2="586.71014"><stop
         offset="0"
         stop-color="#2E12D3"
         id="stop8" /><stop
         offset="1"
         stop-color="#2440FF"
         id="stop9" /></linearGradient></defs><g
     inkscape:label="Layer 1"
     inkscape:groupmode="layer"
     id="layer1"><g
       id="g1"
       transform="matrix(0.26458333,0,0,0.26458333,-18.515295,-1.6469732)"><path
         id="path2"
         style="fill:url(#gradient_0);stroke-width:1.51609"
         d="m 836.05242,166.49165 c -16.87915,-0.80713 -34.00017,5.49913 -48.40223,19.69728 -13.16569,12.98073 -25.94676,26.44703 -39.1458,39.40046 -9.31635,9.49828 -22.2854,20.64024 -30.74516,30.37503 -1.8284,1.11887 -11.50397,11.22175 -13.96458,13.59442 -13.85854,13.19753 -27.52875,26.59071 -41.01131,40.17332 -14.6469,14.50742 -30.05694,34.61093 -51.46104,35.0506 -19.96837,0.40934 -27.25615,-8.91631 -40.24143,-21.40583 -11.05529,-10.6126 -21.96502,-21.37655 -32.72316,-32.29085 l -41.73974,-41.18305 c -18.30825,-18.31735 -37.29617,-37.84176 -56.1396,-55.45262 -15.93255,-17.6533 -25.57271,-25.86259 -50.30917,-27.36654 -58.33444,-3.54613 -90.63683,65.07501 -49.49784,107.00843 14.44223,14.72423 29.36426,28.85597 44.12639,43.25878 7.44247,7.10135 20.9591,21.22767 28.45918,27.31324 4.76354,5.46398 12.5156,12.63853 17.86436,17.85842 l 34.23036,33.34797 54.0698,53.19033 c 10.09864,9.85456 25.33402,25.79582 36.62886,32.92749 14.39523,9.19961 30.85363,14.66965 47.89292,15.9189 5.25021,0.37902 16.79802,0.39244 21.61311,-1.37986 31.62555,-2.54703 52.59931,-25.09464 73.58346,-45.71947 l 47.43691,-46.78842 c 31.61646,-30.46878 62.88587,-61.29405 93.80189,-92.47236 8.50979,-8.53253 19.05316,-17.5753 26.95197,-26.05477 l 1.16076,-0.90017 c 31.25108,-24.5424 40.80579,-63.03625 14.51534,-95.11662 -13.43707,-14.25652 -30.07509,-22.17699 -46.95425,-22.98411 z M 334.70473,426.18946 c -10.02698,0.22891 -20.17824,2.78879 -29.64658,8.0246 -33.02641,18.26428 -34.27084,43.31603 -39.43008,77.13384 l -9.08763,60.4095 c -5.07283,32.46091 -9.92949,64.95348 -14.56568,97.47959 -1.8102,12.44403 -3.85289,24.98881 -5.53726,37.43133 -5.12892,37.89002 2.56775,82.99546 21.05642,116.40696 25.50511,47.0108 68.87346,81.76358 120.3097,96.41655 13.27485,3.78111 34.58277,6.83817 48.47921,5.97551 5.05767,0.11826 11.72243,0.45947 16.6118,0.0593 10.26239,0.72772 23.55634,0.44079 34.01127,0.45898 l 65.68026,-0.0947 237.69681,-0.0711 c 28.14159,0.68072 46.87962,-1.05462 74.13126,-10.44677 48.8301,-17.14693 88.95169,-52.82319 111.68994,-99.31548 11.92705,-25.2868 18.37408,-52.80903 18.92442,-80.76414 0.65798,-26.66795 -5.74073,-57.83808 -9.94635,-84.6728 L 961.245,558.12458 954.28048,510.51001 c -1.95879,-13.46436 -3.57892,-26.7046 -7.79364,-39.72323 -11.36913,-35.10345 -52.05578,-52.95754 -86.50277,-40.59083 -15.51107,5.51552 -28.19038,16.97375 -35.23715,31.85261 -2.0706,4.17834 -3.5607,7.85199 -4.60155,11.28773 -3.12259,10.3072 -2.21647,18.48429 -0.91794,31.79931 l 1.522,11.1456 c 0.18799,0.73375 0.40346,1.40885 0.62479,2.132 l 0.33461,5.21451 c 0.39569,1.40993 0.81152,2.81584 1.24662,4.21364 l 0.0444,0.61296 c 1.14465,14.47407 5.54061,37.14027 7.86174,52.08584 5.4094,33.16589 10.32835,66.41266 14.74926,99.7241 2.03459,15.30791 6.16431,29.65685 4.29953,45.20128 -4.63923,38.65715 -33.01476,63.7547 -69.46753,72.8876 -16.73152,1.5555 -32.21202,1.20125 -48.9678,1.17851 -20.96898,0.0243 -41.93977,-0.0876 -62.90572,-0.33164 -40.39459,-0.23196 -80.78864,-0.1938 -121.18323,0.11552 -24.1846,0.0834 -51.87497,-0.552 -75.78061,0.32278 -12.40158,-0.10461 -21.66011,-0.10006 -33.93131,-1.83293 -26.82865,-8.42186 -45.81958,-17.76495 -59.74028,-44.43139 -5.18957,-9.77723 -8.19377,-20.56641 -8.8093,-31.61868 -0.72014,-15.63388 6.86858,-58.96006 9.25642,-76.33137 4.01763,-29.40146 9.07003,-59.62548 13.48487,-88.845 2.54854,-22.8747 12.09552,-56.46958 7.88838,-78.83942 -6.01052,-31.94583 -34.96858,-52.2366 -65.04956,-51.54989 z" /></g></g></svg>
